<?xml version="1.0" encoding="UTF-8"?>
<svg version="1.1" xmlns="http://www.w3.org/2000/svg" width="2048" height="2048">
<path d="M0 0 C51.11495285 -0.05140421 102.22990755 -0.09915959 153.34487915 -0.12702942 C154.10254794 -0.12744359 154.86021673 -0.12785776 155.64084518 -0.12828448 C172.1108056 -0.1372652 188.58076629 -0.14557546 205.05072739 -0.15319599 C213.12870764 -0.15693769 221.20668782 -0.16082739 229.28466797 -0.16479492 C230.08848329 -0.1651872 230.89229861 -0.16557948 231.72047197 -0.16598364 C257.7297253 -0.17874592 283.73895896 -0.20126351 309.7482004 -0.22889166 C336.49736712 -0.25725389 363.24652297 -0.27567123 389.99570447 -0.28174497 C393.78210567 -0.28260931 397.56850683 -0.28358622 401.35490799 -0.28463173 C402.10005625 -0.284834 402.84520451 -0.28503627 403.61293302 -0.28524467 C415.56174877 -0.28877668 427.5105307 -0.30265513 439.45933271 -0.3204961 C451.49977916 -0.33824972 463.5401924 -0.34488112 475.58065145 -0.34050413 C482.09311098 -0.33843665 488.60549147 -0.34142569 495.11793518 -0.35761642 C501.09868077 -0.37237545 507.0792631 -0.37285024 513.06001671 -0.36269668 C515.20582507 -0.36144456 517.35164426 -0.36511329 519.4974318 -0.37464955 C534.23705959 -0.43626195 548.54939311 0.77228998 563.16452082 2.65848013 C567.28907432 3.15526282 571.42104537 3.49397788 575.5625 3.8125 C605.5107659 6.58797867 636.40038576 13.64160947 664.86572266 23.28564453 C667.51113687 24.17108059 670.16764019 25.01975122 672.82421875 25.87109375 C691.77121311 31.99177631 691.77121311 31.99177631 700.69140625 36.38671875 C703.30714605 37.66216213 705.9233731 38.8580558 708.58984375 40.01953125 C738.66927763 53.13887978 766.97727531 70.75083409 792 92 C793.01449219 92.83015625 794.02898437 93.6603125 795.07421875 94.515625 C802.57733918 100.71558938 809.5525873 107.37139274 816.4375 114.25 C817.27788818 115.08958252 818.11827637 115.92916504 818.98413086 116.79418945 C888.11629183 186.5464934 919.57856635 285.45951058 919.26074219 382.12695312 C919.25001039 385.99625304 919.26071602 389.86508889 919.2734375 393.734375 C919.28530654 413.76811725 918.28721342 433.62705909 915.1875 453.4375 C914.93093628 455.11223389 914.93093628 455.11223389 914.66918945 456.82080078 C912.81489515 468.62539303 910.55563684 480.32832615 908 492 C907.63116699 493.69697021 907.63116699 493.69697021 907.25488281 495.42822266 C891.05126042 568.89345416 856.3178969 638.40306061 808 696 C807.17242188 697.00160156 806.34484375 698.00320313 805.4921875 699.03515625 C795.0193436 711.64713422 783.69126539 723.39129331 772.125 735 C771.24537598 735.88429688 770.36575195 736.76859375 769.45947266 737.6796875 C764.46688585 742.65997496 759.37071811 747.43123108 754 752 C752.9905447 752.87721224 751.98140608 753.7547891 750.97265625 754.6328125 C704.99703371 794.00522483 652.11526968 824.78152994 595.37255859 845.75292969 C593.09962118 846.5933933 590.82914712 847.44054524 588.56103516 848.29394531 C572.57943238 854.30078493 556.59587272 859.25436908 540.00097656 863.26367188 C537.33135651 863.91869743 534.67672206 864.61031773 532.0234375 865.328125 C521.5920016 868.12196786 511.05775454 870.19953139 500.4375 872.125 C499.76233337 872.24747101 499.08716675 872.36994202 498.39154053 872.49612427 C493.59933052 873.36012232 488.80075089 874.18489283 484 875 C483.31712732 875.11669812 482.63425465 875.23339624 481.93068886 875.35363066 C433.14360655 883.61496761 384.19097084 883.7090468 334.88106596 883.51769172 C325.18465795 883.4810855 315.48828468 883.47436432 305.79181743 883.46871033 C288.51365597 883.45788963 271.23561561 883.42495635 253.95751953 883.37719727 C237.21891872 883.33097886 220.48035134 883.29574722 203.74169922 883.2746582 C202.7020023 883.27334459 201.66230537 883.27203097 200.59110248 883.27067754 C195.37288106 883.26415021 190.15465941 883.25783218 184.93643761 883.25161803 C141.95754143 883.20016777 98.9787771 883.11244677 56 883 C56.26677048 881.86947708 56.53354095 880.73895416 56.80839539 879.57417297 C57.16614463 878.05637 57.5238758 876.53856276 57.8815918 875.02075195 C58.05649895 874.27974495 58.2314061 873.53873795 58.41161346 872.77527618 C59.59669931 867.74480024 60.75421457 862.70878586 61.89453125 857.66796875 C62.06961212 856.89440536 62.24469299 856.12084198 62.42507935 855.32383728 C62.56211273 854.71673416 62.69914612 854.10963104 62.84033203 853.48413086 C65.90048435 839.95000901 69.08503894 826.46234629 72.49316406 813.01098633 C75.51523932 801.04961247 78.26388982 789.02941853 81 777 C83.88720702 764.32427254 86.80030971 751.66349239 90 739.0625 C92.11340428 730.73883332 94.04818596 722.39106349 95.875 714 C98.39304696 702.45258427 101.19895271 690.9939189 104.09570312 679.53735352 C106.28967919 670.85964275 108.42347857 662.17126066 110.45336914 653.45361328 C110.72008423 652.31448486 110.72008423 652.31448486 110.9921875 651.15234375 C111.21430908 650.1931604 111.21430908 650.1931604 111.44091797 649.21459961 C112.22159157 646.12224581 113.11998637 643.06535437 114 640 C112.72778217 640.00553076 111.45556435 640.01106152 110.14479446 640.01675987 C79.91304154 640.14683878 49.68136444 640.2457088 19.44939865 640.30639198 C15.72456606 640.31389579 11.99973406 640.32166177 8.27490234 640.32958984 C7.53338699 640.33116371 6.79187164 640.33273757 6.02788612 640.33435912 C-5.96273898 640.36043366 -17.95319066 640.40772255 -29.94371304 640.46291678 C-42.25637528 640.51911918 -54.56894698 640.55237234 -66.88173223 640.56453097 C-74.47329096 640.57274451 -82.06435943 640.59864095 -89.65576717 640.6474988 C-95.48683554 640.68310482 -101.31759305 640.68670766 -107.1487484 640.67864609 C-109.53354845 640.68029193 -111.91836769 640.69216262 -114.30305672 640.71523285 C-129.32197249 640.85336012 -139.82137353 640.5357352 -151.5 630.1875 C-159.06804821 621.99009227 -160.48880348 612.56181906 -160.27734375 601.765625 C-159.90640776 596.72925469 -158.66674379 593.23836709 -156 589 C-155.59910156 588.31550781 -155.19820312 587.63101563 -154.78515625 586.92578125 C-149.80676691 579.34997139 -141.69219629 574.2980068 -133 572 C-129.41772417 571.71551395 -125.84794947 571.73876719 -122.25601196 571.75949097 C-120.6312354 571.75692769 -120.6312354 571.75692769 -118.97363508 571.75431263 C-115.34384699 571.75101822 -111.71424372 571.76202084 -108.08447266 571.77294922 C-105.48263554 571.77351334 -102.88079811 571.77319675 -100.27896118 571.77206421 C-94.67725333 571.77101643 -89.07559214 571.77728187 -83.47389603 571.78853989 C-75.37482964 571.80480639 -67.27578576 571.81000407 -59.17670481 571.81251587 C-46.03592193 571.81689117 -32.89516391 571.83019579 -19.75439453 571.84912109 C-6.99072392 571.86748417 5.77293994 571.88163858 18.53662109 571.89013672 C19.32361159 571.89066217 20.11060208 571.89118761 20.92144077 571.89172898 C24.86961173 571.89433909 28.81778274 571.8968665 32.76595378 571.89935279 C65.51065395 571.92008014 98.25532365 571.95530118 131 572 C131.06220608 571.32576901 131.12441216 570.65153803 131.18850327 569.9568758 C131.27355244 569.06580726 131.35860161 568.17473871 131.44622803 567.25666809 C131.57047464 565.93594661 131.57047464 565.93594661 131.69723129 564.58854389 C132.12506992 560.93070528 132.95614683 557.44310948 133.890625 553.88671875 C134.0754393 553.15877609 134.2602536 552.43083344 134.45066833 551.68083191 C134.84258585 550.14032182 135.23769141 548.60061959 135.63583374 547.06170654 C136.47075763 543.8341086 137.28960933 540.60249529 138.10966492 537.37109375 C138.51631311 535.7696451 138.92378581 534.16840558 139.33210754 532.56738281 C140.83290658 526.68135475 142.28950694 520.78637729 143.6875 514.875 C143.87393066 514.08996094 144.06036133 513.30492187 144.25244141 512.49609375 C145.37214612 507.74970907 146.45491592 502.99556314 147.52734375 498.23828125 C147.79264893 497.06861816 148.0579541 495.89895508 148.33129883 494.69384766 C148.84543181 492.42255332 149.35469793 490.1501496 149.8581543 487.87646484 C150.0931665 486.83828613 150.32817871 485.80010742 150.5703125 484.73046875 C150.77414551 483.81676514 150.97797852 482.90306152 151.18798828 481.96166992 C151.86330081 479.49858626 152.64558711 477.19758082 153.55075073 474.81489563 C153.8218611 474.09912007 154.09297146 473.38334452 154.37229729 472.64587879 C154.57943918 472.10273879 154.78658108 471.55959879 155 471 C153.45045811 471.0028479 153.45045811 471.0028479 151.86961234 471.00575334 C106.33915102 471.08910463 60.80868385 471.16624261 15.27816772 471.2117157 C14.5887769 471.21240598 13.89938607 471.21309627 13.18910462 471.21380747 C-1.79348233 471.22877227 -16.77607011 471.24262314 -31.75865915 471.25532665 C-39.10619613 471.26156329 -46.45373288 471.26804606 -53.80126953 471.2746582 C-54.53243486 471.275312 -55.26360019 471.27596579 -56.01692204 471.2766394 C-79.71294279 471.29794332 -103.40890389 471.33549775 -127.10488851 471.3814861 C-151.45710146 471.42866217 -175.80928141 471.45943025 -200.16153929 471.46957495 C-203.60170768 471.47101571 -207.04187597 471.47264389 -210.48204422 471.47438622 C-211.49764848 471.47489189 -211.49764848 471.47489189 -212.53376999 471.47540778 C-223.42948726 471.48131467 -234.32510243 471.50450032 -245.22077807 471.53416017 C-256.17659533 471.56361453 -267.1323264 471.5744308 -278.08818392 471.56750689 C-284.02357127 471.56430063 -289.95865912 471.56925689 -295.89399338 471.59602737 C-301.32875119 471.6203612 -306.76300815 471.62158628 -312.19778903 471.60449447 C-314.16297076 471.60238209 -316.12818376 471.60872331 -318.09330396 471.62441591 C-337.03088821 471.76683934 -337.03088821 471.76683934 -345 466 C-345.75483653 465.45614617 -346.50967307 464.91229234 -347.28738344 464.3519581 C-354.4289432 458.92306961 -358.32024842 450.7041673 -360 442 C-361.02643906 431.79877485 -358.46540528 423.03807143 -352 415 C-344.37822301 406.83608825 -336.53282569 402.94764744 -325.30365219 402.54946171 C-320.72876528 402.47362429 -316.15662212 402.49047601 -311.58137512 402.51898193 C-309.4971048 402.51723621 -307.41283534 402.51373128 -305.32857054 402.50862527 C-299.61831855 402.4997018 -293.90836794 402.51565297 -288.19815433 402.53573751 C-282.03400952 402.55303592 -275.86988125 402.54716411 -269.70571899 402.54412842 C-259.03157297 402.54203257 -248.35753475 402.55442634 -237.68342018 402.57707977 C-226.49187569 402.6007703 -215.30037027 402.61614808 -204.10880089 402.62049103 C-203.41222459 402.62076599 -202.7156483 402.62104094 -201.99796363 402.62132424 C-198.46021962 402.62267762 -194.92247558 402.62388314 -191.38473149 402.62503174 C-166.34492139 402.6334272 -141.30516226 402.66035936 -116.26538086 402.69824219 C-91.94376903 402.73499595 -67.62217116 402.76332254 -43.30053711 402.78027344 C-42.17544211 402.78106259 -42.17544211 402.78106259 -41.02761791 402.78186769 C-33.49498367 402.7871419 -25.96234932 402.79224514 -18.42971488 402.79722313 C-3.08568544 402.80736723 12.2583431 402.81865224 27.60237122 402.83062744 C28.66054732 402.83145118 28.66054732 402.83145118 29.74010073 402.83229156 C76.82675546 402.86907703 123.91338027 402.93253917 171 403 C171.09545892 401.979502 171.09545892 401.979502 171.1928463 400.93838787 C171.32209212 399.5946672 171.32209212 399.5946672 171.45394897 398.22380066 C171.53821325 397.33721866 171.62247753 396.45063665 171.70929527 395.53718853 C172.07886696 392.31167148 172.78035458 389.25274381 173.6015625 386.11328125 C174.08423584 384.23479492 174.08423584 384.23479492 174.57666016 382.31835938 C174.83277069 381.34032349 174.83277069 381.34032349 175.09405518 380.3425293 C176.01740454 376.81216949 176.91521978 373.27534219 177.8125 369.73828125 C177.99680573 369.0128714 178.18111145 368.28746155 178.3710022 367.54006958 C180.25994458 360.0569317 181.95366565 352.53422415 183.625 345 C185.7682192 335.36773263 187.98437178 325.76163905 190.375 316.1875 C190.75132568 314.67446289 190.75132568 314.67446289 191.13525391 313.13085938 C192.86978195 306.2604361 192.86978195 306.2604361 194 304 C192.77997979 304.00170874 192.77997979 304.00170874 191.53531271 304.003452 C143.33596316 304.07057781 95.13661857 304.12205543 46.93723163 304.15319599 C41.15061854 304.15694813 35.36400553 304.1608311 29.57739258 304.16479492 C28.42537607 304.16558185 27.27335956 304.16636878 26.08643346 304.16717956 C7.43010348 304.18023553 -11.22619879 304.20389044 -29.88251232 304.23145839 C-49.0238341 304.25950724 -68.16514136 304.27617516 -87.30648285 304.28226548 C-99.11888671 304.286383 -110.93121223 304.29939062 -122.74359197 304.3237494 C-130.84241237 304.33960015 -138.94119223 304.34440185 -147.04002701 304.34050413 C-151.71348567 304.33858157 -156.38680736 304.34154088 -161.0602417 304.35761642 C-165.34081359 304.37223303 -169.62115663 304.37294093 -173.90173913 304.36269668 C-175.44832701 304.36143086 -176.99492927 304.36522149 -178.54148894 304.37464955 C-190.68896545 304.44438197 -200.38879942 303.0153786 -210 295 C-212.35956391 292.51459268 -214.21672215 289.92154031 -216 287 C-216.41378906 286.35675781 -216.82757813 285.71351563 -217.25390625 285.05078125 C-221.63707489 277.03278983 -221.32449494 265.83213119 -219.0625 257.125 C-215.51129733 248.33956021 -207.10846402 241.20751405 -198.88681585 236.89038098 C-194.75953451 235.61740307 -190.85658048 235.72863974 -186.56094646 235.75390434 C-185.60124611 235.75159665 -184.64154576 235.74928897 -183.65276358 235.74691135 C-180.41815426 235.74159301 -177.18374172 235.75061076 -173.94914246 235.75949097 C-171.6143145 235.75861928 -169.27948673 235.75686897 -166.94466001 235.75431263 C-161.18896829 235.75029863 -155.43333722 235.75561298 -149.67765266 235.76479399 C-142.78477478 235.77526136 -135.89191155 235.77410576 -128.99902766 235.77250507 C-116.27789394 235.76987627 -103.55678098 235.77656391 -90.83565331 235.78853989 C-78.2380278 235.80036923 -65.64041094 235.80807083 -53.04277992 235.81024551 C-51.86836657 235.81045173 -51.86836657 235.81045173 -50.6702277 235.81066212 C-46.69414713 235.81133877 -42.71806655 235.81194154 -38.74198595 235.81251587 C-10.57090467 235.81671799 17.60016532 235.83019633 45.77124023 235.84912109 C73.14103129 235.86748637 100.51081925 235.88165535 127.88061523 235.89013672 C129.14584117 235.8905313 129.14584117 235.8905313 130.43662723 235.89093385 C138.90715007 235.89357086 147.37767293 235.89612249 155.84819581 235.89861157 C173.10401282 235.90368415 190.35982964 235.90932666 207.61564636 235.91531372 C208.80576855 235.91572559 208.80576855 235.91572559 210.01993361 235.91614578 C263.01329383 235.93455072 316.00664758 235.9662831 369 236 C368.44839352 240.52367124 367.88780994 244.94010649 366.87109375 249.38671875 C366.64502441 250.38751465 366.41895508 251.38831055 366.18603516 252.41943359 C365.93901855 253.49789551 365.69200195 254.57635742 365.4375 255.6875 C364.89090266 258.11044621 364.34538907 260.53363708 363.80078125 262.95703125 C363.65642639 263.59825928 363.51207153 264.2394873 363.36334229 264.90014648 C361.57029159 272.88156105 359.84902536 280.87845018 358.125 288.875 C357.78519591 290.44898317 357.44535186 292.02295772 357.10546875 293.59692383 C355.55567232 300.77628063 354.00913469 307.95633466 352.46524048 315.13696289 C351.62370721 319.0498677 350.78096929 322.9625121 349.9375 326.875 C349.77040527 327.65020996 349.60331055 328.42541992 349.43115234 329.22412109 C347.22363313 339.45549275 344.95477401 349.67064438 342.625 359.875 C339.36331864 374.17051602 336.31678324 388.50943099 333.28042603 402.85424805 C330.62165949 415.41450349 327.92769432 427.96323372 325.11254883 440.48950195 C323.06041724 449.64943836 321.12068392 458.83190667 319.18719482 468.01739502 C316.84941204 479.11301907 314.41563565 490.18494237 311.9375 501.25 C309.51574843 512.06621684 307.15906485 522.89042871 304.9375 533.75 C302.90132057 543.70274608 300.80083861 553.63940783 298.625 563.5625 C298.48070557 564.22073761 298.33641113 564.87897522 298.18774414 565.55715942 C296.4714973 573.37782755 294.73557779 581.19402719 292.98828125 589.0078125 C292.30435084 592.06763321 291.62071946 595.12752046 290.9375 598.1875 C290.76835083 598.94507599 290.59920166 599.70265198 290.42492676 600.48318481 C287.63351065 613.001286 284.99257379 625.54471173 282.41796875 638.109375 C278.56050913 656.91878114 274.42167265 675.66884189 270.30078125 694.421875 C269.88169121 696.32991039 269.46262368 698.23795072 269.0435791 700.14599609 C268.0293116 704.7640543 267.01474168 709.38204596 266 714 C285.94273909 713.93915245 305.88534683 713.86143604 325.82794285 713.76428509 C335.09011755 713.71954656 344.35225568 713.68008302 353.61450195 713.65356445 C361.69867977 713.63040483 369.78273967 713.59681144 377.86682361 713.55129844 C382.13711434 713.52760514 386.40729005 713.50872163 390.67764473 713.50238609 C408.99634934 713.47170302 426.8807539 713.05517609 445 710 C446.3945872 709.78144415 447.78948565 709.56486087 449.18475342 709.35069275 C520.04740852 698.30565296 589.18196072 663.23294566 633 605 C633.93551245 603.7924374 634.87176685 602.58544939 635.80859375 601.37890625 C660.92302936 568.75965781 679.30997567 531.43716693 691 492 C691.33874146 490.88238281 691.33874146 490.88238281 691.68432617 489.7421875 C705.17552996 444.56650305 708.7174409 393.49553615 701 347 C700.88253418 346.27506348 700.76506836 345.55012695 700.64404297 344.80322266 C699.92209663 340.49361283 699.00312377 336.25197956 698 332 C697.83274414 331.26185059 697.66548828 330.52370117 697.49316406 329.76318359 C689.24686954 293.52211558 673.55253968 260.08897782 649 232 C648.51789062 231.43958008 648.03578125 230.87916016 647.5390625 230.30175781 C641.28623314 223.06004867 634.54768153 216.87656729 627 211 C626.22398437 210.34644531 625.44796875 209.69289063 624.6484375 209.01953125 C603.91013201 191.6451315 578.50135778 180.30567224 553 172 C552.20899902 171.73606445 551.41799805 171.47212891 550.60302734 171.20019531 C542.25068365 168.43412305 533.8330604 166.43805061 525.1875 164.8125 C523.96317261 164.5798645 523.96317261 164.5798645 522.71411133 164.3425293 C506.88338289 161.55708614 490.97205149 160.70105358 474.92877197 160.7215271 C473.10072103 160.71650792 471.27267229 160.71062747 469.44462657 160.70397437 C464.48451098 160.68835633 459.52445228 160.68475388 454.56431508 160.68332577 C449.19173056 160.67959947 443.81917612 160.66442835 438.4466095 160.65071106 C429.15920585 160.62853493 419.87181305 160.61346392 410.58438873 160.60334396 C397.1566582 160.5887021 383.72896546 160.56315014 370.30125722 160.53501268 C348.51090679 160.48964429 326.72055089 160.45298853 304.93017578 160.421875 C283.77424154 160.39164856 262.61832065 160.35727959 241.46240234 160.31738281 C240.15636575 160.31492126 238.85032917 160.31245972 237.50471571 160.30992357 C230.95212099 160.29754818 224.39952643 160.2850918 217.84693193 160.27259517 C163.56463996 160.16917654 109.2823313 160.0799243 55 160 C54.74765594 159.23805832 54.49531189 158.47611664 54.23532104 157.69108582 C53.07247888 154.18286899 51.90734726 150.67541649 50.7421875 147.16796875 C50.34539795 145.96974487 49.9486084 144.771521 49.53979492 143.5369873 C46.00442432 132.90373601 42.18731928 122.39379942 38.20996094 111.91943359 C36.36067468 107.02773585 34.68386475 102.09718523 33.0625 97.125 C32.32069472 94.94321977 31.53580384 92.77582415 30.71875 90.62109375 C28.41776338 84.53764356 26.34636434 78.37140414 24.23876953 72.21899414 C23.50281494 70.07071691 22.76522613 67.92300638 22.02734375 65.77539062 C19.85198049 59.43876619 17.69049179 53.09828126 15.58203125 46.73901367 C14.83969841 44.5210452 14.0553855 42.32081518 13.25 40.125 C12.91484375 39.20847656 12.5796875 38.29195312 12.234375 37.34765625 C11.26888596 34.72922552 10.29962399 32.11229489 9.328125 29.49609375 C0 4.34764993 0 4.34764993 0 0 Z " fill="#FDFEFD" transform="translate(691,556)"/>
</svg>
